Land_normalized_pl02_filtered_grf
version=1
nRows=20
nColumns=37
inDegrees=yes
endheader
time		1_ground_force_vx		1_ground_force_vy		1_ground_force_vz		1_ground_force_px		1_ground_force_py		1_ground_force_pz		1_ground_torque_x		1_ground_torque_y		1_ground_torque_z		2_ground_force_vx		2_ground_force_vy		2_ground_force_vz		2_ground_force_px		2_ground_force_py		2_ground_force_pz		2_ground_torque_x		2_ground_torque_y		2_ground_torque_z		3_ground_force_vx		3_ground_force_vy		3_ground_force_vz		3_ground_force_px		3_ground_force_py		3_ground_force_pz		3_ground_torque_x		3_ground_torque_y		3_ground_torque_z		4_ground_force_vx		4_ground_force_vy		4_ground_force_vz		4_ground_force_px		4_ground_force_py		4_ground_force_pz		4_ground_torque_x		4_ground_torque_y		4_ground_torque_z		
0.682000		8.588395		-47.014344		-39.247901		0.151329		0.000000		0.268146		-0.047692		0.261076		0.217948		-5.494645		-8.944136		1.996046		-0.158886		0.000000		0.281486		0.186779		0.304037		-0.067851		21.622008		1.060848		0.704652		0.375092		1.311076		1.913260		-0.104734		-0.005139		-0.003413		-18.761026		-0.709039		1.528670		-0.265741		1.310065		1.923847		0.014252		0.000539		-0.001161		
0.684778		11.429491		-68.264458		-55.373863		0.149162		0.000000		0.264450		-0.078210		0.467172		0.378943		-5.833299		-40.641623		-13.692168		-0.136371		0.000000		0.281171		0.143312		0.996755		0.335513		21.466083		1.009859		0.685730		0.375080		1.311058		1.913277		-0.104455		-0.004914		-0.003337		-18.735932		-0.695023		1.554780		-0.265777		1.310055		1.923877		0.012356		0.000459		-0.001025		
0.687556		10.831508		-69.696941		-55.944700		0.147052		0.000000		0.259587		-0.092269		0.593770		0.476612		-3.788296		-72.290696		-32.189301		-0.134517		0.000000		0.280642		0.079210		1.510762		0.672657		21.351627		0.928315		0.639002		0.375076		1.311045		1.913286		-0.103379		-0.004495		-0.003094		-18.682498		-0.667647		1.574885		-0.265802		1.310049		1.923902		0.009799		0.000351		-0.000826		
0.690333		4.719303		-35.418199		-29.933922		0.141536		0.000000		0.239404		-0.072247		0.543932		0.460423		1.313175		-89.113266		-46.820165		-0.134404		0.000000		0.280667		-0.024415		1.663539		0.873906		21.301110		0.827759		0.577421		0.375082		1.311038		1.913293		-0.101909		-0.003960		-0.002762		-18.607646		-0.632388		1.584339		-0.265813		1.310049		1.923920		0.006469		0.000220		-0.000551		
0.693111		-8.043423		47.070948		29.832776		0.156728		0.000000		0.297993		-0.054666		0.318106		0.200661		9.307660		-72.926878		-48.228196		-0.136511		0.000000		0.282185		-0.150781		1.183482		0.782341		21.323108		0.727030		0.518981		0.375092		1.311040		1.913298		-0.100682		-0.003433		-0.002451		-18.524975		-0.599001		1.581148		-0.265811		1.310052		1.923932		0.002635		0.000085		-0.000225		
0.695889		-27.018220		182.852555		123.295164		0.149559		0.000000		0.277983		0.022315		-0.151225		-0.101960		18.962927		-6.340781		-26.258909		-0.274008		0.000000		0.371496		-0.108821		1.276211		0.413173		21.410912		0.646503		0.479993		0.375104		1.311050		1.913308		-0.100289		-0.003028		-0.002248		-18.452467		-0.580843		1.566030		-0.265800		1.310060		1.923941		-0.001122		-0.000036		0.000095		
0.698667		-49.648398		365.309225		239.870128		0.147489		0.000000		0.274457		0.088873		-0.653954		-0.429389		27.920120		120.845326		26.820617		-0.122980		0.000000		0.268024		-0.579715		-2.504374		-0.554492		21.543557		0.602142		0.468897		0.375113		1.311065		1.913320		-0.101000		-0.002823		-0.002199		-18.410110		-0.591473		1.542713		-0.265782		1.310070		1.923948		-0.004105		-0.000132		0.000344		
0.701444		-71.565070		575.976273		358.918143		0.145957		0.000000		0.273605		0.108411		-0.872415		-0.543688		33.203710		305.624968		112.615751		-0.124410		0.000000		0.270737		-0.577236		-5.311805		-1.957100		21.692787		0.601171		0.482569		0.375119		1.311082		1.913336		-0.102626		-0.002844		-0.002283		-18.413778		-0.639576		1.517585		-0.265762		1.310082		1.923956		-0.005769		-0.000200		0.000475		
0.704222		-87.711958		789.027808		454.086504		0.144545		0.000000		0.274115		0.034898		-0.312693		-0.180496		32.099782		529.481368		224.310408		-0.123804		0.000000		0.270255		-0.490398		-8.084000		-3.424381		21.830630		0.641804		0.508849		0.375120		1.311095		1.913353		-0.104615		-0.003076		-0.002438		-18.468092		-0.725972		1.498125		-0.265742		1.310094		1.923965		-0.005894		-0.000231		0.000478		
0.707000		-94.484442		979.271561		502.570606		0.143245		0.000000		0.275761		-0.151811		1.573427		0.807496		23.579305		759.804235		345.686276		-0.122269		0.000000		0.268704		-0.311407		-10.034581		-4.565409		21.935677		0.713365		0.533629		0.375121		1.311101		1.913368		-0.106297		-0.003457		-0.002586		-18.560763		-0.841864		1.489870		-0.265723		1.310105		1.923976		-0.004682		-0.000212		0.000376		
0.709778		-91.335059		1129.181887		492.725032		0.142269		0.000000		0.278547		-0.420509		5.204748		2.268546		9.069107		958.576761		454.491074		-0.119940		0.000000		0.266374		-0.098726		-10.396522		-4.929039		21.994678		0.800325		0.548662		0.375124		1.311096		1.913377		-0.107154		-0.003899		-0.002673		-18.668078		-0.971450		1.494160		-0.265704		1.310115		1.923990		-0.002590		-0.000134		0.000207		
0.712556		-81.869416		1234.115973		432.321091		0.141918		0.000000		0.282340		-0.690151		10.406673		3.644108		-6.978865		1095.882010		528.947641		-0.116864		0.000000		0.263449		0.056034		-8.820359		-4.257289		22.005654		0.885769		0.555324		0.375131		1.311082		1.913378		-0.107023		-0.004308		-0.002701		-18.763137		-1.093669		1.506179		-0.265686		1.310121		1.924005		-0.000148		-0.000008		0.000012		
0.715333		-71.799594		1298.594393		343.949878		0.142350		0.000000		0.286795		-0.898173		16.250515		4.301180		-18.311644		1158.793592		554.038441		-0.113199		0.000000		0.260343		0.087495		-5.547360		-2.652625		21.976097		0.956896		0.562233		0.375146		1.311059		1.913371		-0.106055		-0.004618		-0.002714		-18.823840		-1.186684		1.517067		-0.265669		1.310125		1.924021		0.002228		0.000141		-0.000180		
0.718111		-66.065277		1333.585032		258.248973		0.143266		0.000000		0.291275		-1.055845		21.314293		4.126280		-18.950145		1157.150316		528.037224		-0.109477		0.000000		0.257962		0.024954		-1.516316		-0.692655		21.923477		1.008556		0.579680		0.375165		1.311035		1.913359		-0.104658		-0.004815		-0.002768		-18.837090		-1.233334		1.518146		-0.265652		1.310126		1.924037		0.004256		0.000279		-0.000343		
0.720889		-66.176877		1350.300030		201.275630		0.143943		0.000000		0.294915		-1.205337		24.593866		3.665587		-5.335742		1116.180429		461.844652		-0.106789		0.000000		0.257754		-0.008968		1.936383		0.800380		21.869103		1.043179		0.613343		0.375185		1.311016		1.913346		-0.103319		-0.004928		-0.002897		-18.798974		-1.225178		1.506414		-0.265638		1.310125		1.924050		0.005725		0.000373		-0.000458		
0.723667		-69.896645		1357.272740		185.741773		0.143705		0.000000		0.296899		-1.344900		26.115333		3.573889		22.159977		1066.808155		375.744673		-0.106788		0.000000		0.261207		0.073469		3.531896		1.243764		21.832580		1.066968		0.661572		0.375203		1.311005		1.913338		-0.102440		-0.005006		-0.003104		-18.715017		-1.165981		1.487583		-0.265626		1.310122		1.924061		0.006481		0.000404		-0.000515		
0.726444		-73.320098		1359.049019		208.364647		0.142354		0.000000		0.296838		-1.439801		26.687851		4.091725		59.123091		1033.886234		292.256308		-0.110909		0.000000		0.268590		0.150061		2.628330		0.743391		21.826382		1.084287		0.715873		0.375217		1.311005		1.913335		-0.102194		-0.005077		-0.003352		-18.599637		-1.070621		1.473159		-0.265617		1.310119		1.924070		0.006513		0.000375		-0.000515		
0.729222		-73.394209		1356.884450		254.562094		0.140132		0.000000		0.294969		-1.476317		27.293787		5.120824		98.296240		1029.692161		229.777301		-0.118929		0.000000		0.278072		-0.049475		-0.506536		-0.111494		21.852962		1.094829		0.763261		0.375224		1.311015		1.913340		-0.102489		-0.005135		-0.003580		-18.475794		-0.959005		1.473441		-0.265612		1.310117		1.924075		0.006046		0.000314		-0.000482		
0.732000		-69.181277		1350.366681		305.706690		0.137495		0.000000		0.292140		-1.460216		28.502314		6.452579		131.686112		1052.488905		197.954218		-0.128182		0.000000		0.286623		-0.611542		-4.887695		-0.919287		21.903751		1.094892		0.789677		0.375228		1.311035		1.913353		-0.103047		-0.005151		-0.003715		-18.372959		-0.849161		1.490782		-0.265608		1.310117		1.924079		0.005507		0.000255		-0.000447		
0.734778		-61.165293		1338.618254		346.418808		0.134955		0.000000		0.289460		-1.383209		30.274480		7.835166		152.879279		1092.199844		198.198685		-0.135245		0.000000		0.291953		-1.303233		-9.309019		-1.689451		21.965007		1.079947		0.782443		0.375229		1.311058		1.913370		-0.103589		-0.005093		-0.003690		-18.321072		-0.752589		1.519073		-0.265605		1.310120		1.924081		0.005333		0.000219		-0.000442		
